<?xml version="1.0" encoding="utf-8"?>
<!-- Generator: Adobe Illustrator 19.2.1, SVG Export Plug-In . SVG Version: 6.00 Build 0)  -->
<svg version="1.1" id="Layer_1" xmlns="http://www.w3.org/2000/svg" xmlns:xlink="http://www.w3.org/1999/xlink" x="0px" y="0px"
	 viewBox="0 0 175 140" style="enable-background:new 0 0 175 140;" xml:space="preserve">
<style type="text/css">
	.st0{fill:none;}
	.st1{fill:#5CD6D6;stroke:#FFFFFF;stroke-width:2;stroke-miterlimit:10;}
	.st2{fill:none;stroke:#ADB0BD;stroke-width:2;stroke-miterlimit:10;}
	.st3{fill:#CCFFFF;}
	.st4{fill:none;stroke:#E6EBFC;stroke-width:4;stroke-miterlimit:10;}
	.st5{fill:#A2A3A3;}
	.st6{fill:none;stroke:#E6EBFC;stroke-width:3;stroke-miterlimit:10;}
	.st7{fill:#5CD6D6;stroke:#FEFEFE;stroke-width:4;stroke-miterlimit:10;}
	.st8{fill:none;stroke:#FBFBFB;stroke-width:4;stroke-miterlimit:10;}
	.st9{fill:none;stroke:#2C2F35;stroke-width:2;stroke-miterlimit:10;}
	.st10{fill:none;stroke:#BDC0CA;stroke-width:2;stroke-miterlimit:10;}
	.st11{fill:#ECA285;stroke:#FBFBFB;stroke-miterlimit:10;}
</style>
<rect class="st0" width="175" height="140"/>
<path class="st1" d="M24.6,33.5l2-1.1c0.6-0.3,1.3,0,1.6,0.7l5.6,13.2c0.6,0.8,1.2,1.7,1.8,2.8c1.1,2.1,1.8,4.3,2,5.9
	c1.1-1.4,2.7-2.8,4.7-3.7c2.1-1,4.2-1.3,5.8-1l1.5-0.9c0.9-1.8,2.9-3.7,5.4-4.8c1.8-0.9,3.6-1.2,5.1-1.1l0.2-0.1v0.1
	c1.6,0.2,2.8,0.9,3.1,2.2c0.3,1.2-0.1,2.6-1,3.9c0.2,0.2,0.3,0.5,0.4,0.8c0.9,3-4.9,7-12.2,10.5c-7.4,3.5-16.5,7.4-17.3,4.4l0,0
	c0,0,0-0.1-0.1-0.1l-9.3-29.4C23.6,34.8,23.9,33.8,24.6,33.5z"/>
<line class="st2" x1="18.6" y1="33.4" x2="33.7" y2="30.6"/>
<path class="st1" d="M151.4,33.5l-2-1.1c-0.6-0.3-1.3,0-1.6,0.7l-5.6,13.2c-0.6,0.8-1.2,1.7-1.8,2.8c-1.1,2.1-1.8,4.3-2,5.9
	c-1.1-1.4-2.7-2.8-4.7-3.7c-2.1-1-4.2-1.3-5.8-1l-1.5-0.9c-0.9-1.8-2.9-3.7-5.4-4.8c-1.8-0.9-3.6-1.2-5.1-1.1l-0.2-0.1v0.1
	c-1.6,0.2-2.8,0.9-3.1,2.2c-0.3,1.2,0.1,2.6,1,3.9c-0.2,0.2-0.3,0.5-0.4,0.8c-0.9,3,4.9,7,12.2,10.5c7.4,3.5,16.5,7.4,17.3,4.4l0,0
	c0,0,0-0.1,0.1-0.1l9.3-29.4C152.4,34.8,152.1,33.8,151.4,33.5z"/>
<path class="st0" d="M122.6,45.7c0-23.6-15-42.8-33.8-43.4C69.6,1.6,53.1,21.1,52.8,45c-0.1,11.1,3.1,21.3,8.4,29
	c5.9,8.6,9.4,19.5,9.4,30.9l0,0h33.8v-0.7c0-11,3.5-21.5,9.4-29.7C119.4,66.9,122.6,56.8,122.6,45.7z"/>
<path class="st3" d="M87.5,138c7.4,0,13.4-4,13.4-7H74.2C74.2,134,80.2,138,87.5,138z"/>
<g>
	<path class="st4" d="M123.2,93"/>
</g>
<path class="st5" d="M36.8,39.4l10.7-2c1.3-0.2,2.2-1.5,2-2.8l-2-10.7c-0.2-1.3-1.5-2.2-2.8-2l-10.7,2c-1.3,0.2-2.2,1.5-2,2.8
	l2,10.7C34.2,38.8,35.5,39.6,36.8,39.4z"/>
<g>
	<path class="st4" d="M110.7,77.3"/>
</g>
<g>
	<path class="st6" d="M133.9,77.9"/>
</g>
<g>
	<path class="st6" d="M121.8,93"/>
</g>
<path class="st3" d="M100.4,130.8H74.7c-2.2,0-4-1.8-4-4v-22.3h33.8v22.3C104.4,129,102.6,130.8,100.4,130.8z"/>
<path class="st7" d="M122.6,45.7c0-23.6-15-42.8-33.8-43.4C69.6,1.6,53.1,21.1,52.8,45c-0.1,11.1,3.1,21.3,8.4,29
	c5.9,8.6,9.4,19.5,9.4,30.9l0,0h33.8v-0.7c0-11,3.5-21.5,9.4-29.7C119.4,66.9,122.6,56.8,122.6,45.7z"/>
<path class="st8" d="M87.5,138c7.4,0,13.4-4,13.4-7H74.2C74.2,134,80.2,138,87.5,138z"/>
<path class="st5" d="M7.3,45L18,43c1.3-0.2,2.2-1.5,2-2.8l-2-10.7c-0.2-1.3-1.5-2.2-2.8-2l-10.7,2c-1.3,0.2-2.2,1.5-2,2.8l2,10.7
	C4.7,44.4,6,45.2,7.3,45z"/>
<path class="st5" d="M167.9,45.7l-10.3-2.5c-1.3-0.3-2.1-1.6-1.7-2.9l2.5-10.3c0.3-1.3,1.6-2,2.9-1.7l10.3,2.5
	c1.3,0.3,2.1,1.6,1.7,2.9L170.8,44C170.5,45.2,169.2,46,167.9,45.7z"/>
<path class="st8" d="M100.4,130.8H74.7c-2.2,0-4-1.8-4-4v-22.3h33.8v22.3C104.4,129,102.6,130.8,100.4,130.8z"/>
<line class="st9" x1="74.1" y1="111.5" x2="99.4" y2="111.5"/>
<line class="st9" x1="74.1" y1="117.7" x2="99.4" y2="117.7"/>
<line class="st10" x1="157.4" y1="33.8" x2="142.4" y2="30.2"/>
<line class="st9" x1="74.1" y1="123.8" x2="99.4" y2="123.8"/>
<path class="st5" d="M138.8,38.6l-10.3-2.5c-1.3-0.3-2.1-1.6-1.7-2.9l2.5-10.3c0.3-1.3,1.6-2,2.9-1.7l10.3,2.5
	c1.3,0.3,2.1,1.6,1.7,2.9l-2.5,10.3C141.4,38.2,140.1,38.9,138.8,38.6z"/>
<path class="st11" d="M136.2,137"/>
<path class="st11" d="M143.7,128.8"/>
<path class="st11" d="M125.9,132.3"/>
<path class="st11" d="M35,47.3"/>
<path class="st11" d="M28.9,45"/>
<path class="st11" d="M129.4,46.4"/>
<path class="st11" d="M131.8,46.1"/>
</svg>
